PathFileType	4	(X/Y/Z)	50_1_rein_47_p1_0-549_filt_butterworth.trc
DataRate	CameraRate	NumFrames	NumMarkers	Units	OrigDataRate	OrigDataStartFrame	OrigNumFrames
59.0	59.0	5	27	m	59.0	68	549
Frame#	Time	RHip			RKnee			RAnkle			RBigToe			RSmallToe			RHeel			LHip			LKnee			LAnkle			LBigToe			LSmallToe			LHeel			Neck			Head			Nose			RShoulder			RElbow			RWrist			RThumb			RIndex			RPinky			LShoulder			LElbow			LWrist			LThumb			LIndex			LPinky			
		X1	Y1	Z1	X2	Y2	Z2	X3	Y3	Z3	X4	Y4	Z4	X5	Y5	Z5	X6	Y6	Z6	X7	Y7	Z7	X8	Y8	Z8	X9	Y9	Z9	X10	Y10	Z10	X11	Y11	Z11	X12	Y12	Z12	X13	Y13	Z13	X14	Y14	Z14	X15	Y15	Z15	X16	Y16	Z16	X17	Y17	Z17	X18	Y18	Z18	X19	Y19	Z19	X20	Y20	Z20	X21	Y21	Z21	X22	Y22	Z22	X23	Y23	Z23	X24	Y24	Z24	X25	Y25	Z25	X26	Y26	Z26	X27	Y27	Z27	
68	1.152542372881356	0.30266264328921505	0.725170691654465	0.5089286716026237	0.2665710165212105	0.80855825189179	0.9261199665408659	0.29960453632620915	1.0432848173505493	1.3693380815159433	0.24245771725535686	0.8059938834479181	1.3928607650187015	0.30504799631512375	0.8572994581025599	1.4119678912465459	0.2807907707701341	1.1489846714321013	1.4288016136957016	0.08551712831560587	0.7359287667553327	0.5061339145410629	0.10068686690714318	0.8912338779722686	0.9359218492029577	0.10091935505269584	1.008874820091438	1.3564720543167759	0.10665294021505779	0.8086161982801794	1.3776975230397221	0.05953913069937079	0.8619869151952018	1.3933843169629934	0.11240459109360416	1.098349512808441	1.4221009391208448	0.1912985748946958	0.6018589892544869	-0.03477637978577659	0.20715776470911043	0.4171553151892036	-0.25650192613353623	0.19105157715814605	0.3959537406435257	-0.11511862639320565	0.3448334301613618	0.5808695624650376	0.05019991879593484	0.40042240180473293	0.6763258465025451	0.303962825441447	0.37207627385067277	0.5840154093760974	0.5428341297322126	0.321134229612367	0.505973680995505	0.6372096141259487	0.33233263569182614	0.4977350075777184	0.6549060928780972	0.33927575143084543	0.6206252928981569	0.6638009713710049	0.04614217297714471	0.642003123944448	0.034898760758153596	-0.02826408087697955	0.6896829982725392	0.2926811365622867	-0.04283401709774849	0.6634783828162099	0.5500276409784062	-0.019017072972711352	0.6284917682701049	0.6550030895167656	-0.06088770550286252	0.6575428577107255	0.6906158382789922	-0.05860314400527462	0.6674505259262234	0.6819871246003499
69	1.1694915254237288	0.3041095309280673	0.7259638450302961	0.508854222185878	0.26676038470477564	0.8085049949662297	0.9251838944427393	0.2996079961365585	1.0434213942793844	1.3693713642375174	0.24179113614263786	0.8041409229655984	1.3906430326879005	0.3053204051143581	0.8582299548069028	1.4123541839618365	0.2815805252724338	1.1508940662228564	1.4292844473271913	0.08597733012669248	0.7358087387274694	0.506250680725198	0.10240177993831205	0.8900627210629193	0.9356972209239045	0.10149992535282731	1.0088037272009243	1.355475589542627	0.10450298359229297	0.8085313268926801	1.3766578447391	0.05822366033438914	0.8665160183446323	1.3936278117957055	0.11311070928394336	1.1004494495051076	1.4218760789633316	0.1923609677724996	0.6021710960628597	-0.03457827495416779	0.2078013927626275	0.4131650787041677	-0.25478964593455566	0.19111445040066122	0.3962269484380204	-0.11363708306786038	0.34489935232380775	0.5808908710922879	0.05017820573338749	0.4018127610793554	0.678998993815333	0.29955359279617666	0.3774679081158976	0.5678687681953771	0.53819958709165	0.32753898330167985	0.49005655549707694	0.6323872475805403	0.3364785173693811	0.48226918615310577	0.6502447932388956	0.34576172898121454	0.6066814598365278	0.6613581418484681	0.04711163348697583	0.6454961876546915	0.034565867080393976	-0.025905272843449012	0.6943309320420448	0.2888804674835112	-0.04713082104460971	0.6526678127430079	0.5425641741282825	-0.028757733260295522	0.6068953151245684	0.644839754587429	-0.07440159469468006	0.6488680737163066	0.6834356844785351	-0.06752618987823888	0.6684235810258912	0.6781515565401941
70	1.1864406779661016	0.30525915764769507	0.7261377693267019	0.5087452668211503	0.2667732023967528	0.8081689367241175	0.9229703271315153	0.2995990872175572	1.0434981016000031	1.3693954094337106	0.24155732539260355	0.8039474410323808	1.389636250772642	0.3054433363028244	0.8587198013092708	1.4125145122661358	0.28158109137884485	1.1506184050582253	1.4291132692942639	0.08738951053199275	0.736318799260616	0.5063996097880922	0.10420750469188228	0.8859388449542056	0.9349340308398932	0.10206684069017831	1.0085842978636321	1.355074361290814	0.10200384151607064	0.8086614927664828	1.3763097981406105	0.0566391008538857	0.8726774568480634	1.3928674179150908	0.11343323557349945	1.1004608933122864	1.4215463614732093	0.19280939907802264	0.6024491218404634	-0.033786615799676484	0.20712426138755696	0.4089632369146638	-0.25340515824319276	0.1910606571261647	0.3965375997977435	-0.11084085688697203	0.3448778610950739	0.5805370912526009	0.04982381679349952	0.40278888297645454	0.6807445640681989	0.2950906956676535	0.3823398923079548	0.5540859453225183	0.5344458121472854	0.33257023453022694	0.47715823099960275	0.628382816886177	0.33857336611742644	0.4730868171920054	0.6454365317207407	0.3533085506812812	0.5869966730320465	0.6564050958330481	0.04836681493929324	0.6501272082521332	0.03413118677438171	-0.02342419685094472	0.6980105604930804	0.28578115497182743	-0.05136000429256872	0.6416634567359627	0.5342762341069177	-0.04109114904865869	0.5886347016149046	0.6331521382833144	-0.08737285882986703	0.6251640294495314	0.6698199501147504	-0.07747817189619906	0.6641446640187488	0.669288873070066
71	1.2033898305084745	0.3062467354170313	0.7273195538284065	0.50857418320934	0.26673807458144144	0.8072701453904539	0.9202336812395173	0.29959274242450984	1.0435125026506051	1.369402431323431	0.2420339427628138	0.8060537538242895	1.3901968022548552	0.3054000767172622	0.858671405367324	1.4124928394982392	0.2813568569588774	1.1494411279609213	1.4286552877705523	0.08991197085433603	0.7381063514810867	0.5065674019548206	0.10597435270719446	0.8800097963116853	0.9337323863098597	0.10242977178873133	1.0081350843044594	1.3545479557133073	0.10050666448018503	0.8088174058048407	1.3764734306064998	0.05552678758838221	0.8770013305260933	1.390834571161183	0.11377892959465298	1.0994406806086559	1.4212479714035562	0.19285689456650762	0.6026984660019203	-0.032652553446225266	0.2049731278017345	0.40486400929299327	-0.25201722365835694	0.19102575556711693	0.3968601167965783	-0.10766599528676929	0.3449126851942508	0.5801882557030024	0.04888627210934659	0.4030502556434674	0.6808289129647946	0.2909970184553503	0.38647189745977334	0.544395895297176	0.5306759877852087	0.3359319958373167	0.466823481862608	0.6239835976420888	0.339675287724786	0.4680061158253235	0.639277632123872	0.35998441174527135	0.5669921549787391	0.6487605688941825	0.04930841242149538	0.653666901440391	0.033709033948579104	-0.02195053037752157	0.6998522226926623	0.2835507010487933	-0.0575934239404533	0.6315793190798795	0.5253437493901735	-0.05671071421366135	0.5722137129434501	0.619607702131115	-0.09924011504685117	0.5920498247290397	0.650489743396696	-0.08686666388183364	0.6510987626899021	0.6540445016347232
72	1.2203389830508475	0.30756041110244847	0.7307726470763907	0.5084387292899292	0.26670043459879966	0.8061735722289417	0.9179359457209902	0.2995845516518323	1.0434967525715824	1.3693892808599062	0.24312961855802237	0.8083716656298969	1.3916025375713588	0.305183142898912	0.8582651937187038	1.412429724011227	0.28122194314303656	1.1482277326549457	1.4283231981786715	0.09310647457227415	0.7407529978669198	0.5066795343880439	0.10714791686652991	0.8751408775799601	0.9326999160888542	0.10256928343019275	1.0075503688429421	1.3532930565038634	0.10049681637394965	0.8089084318299836	1.3769666674732426	0.05543490093289064	0.876987122070372	1.3886215821921726	0.11431179967258709	1.0985066213095886	1.420837467695468	0.19279707929908205	0.6028988537573495	-0.031770941918438884	0.2025085319511945	0.40121434086434726	-0.2503142793571807	0.1910278293637195	0.39703373515406404	-0.10526309898511955	0.34496530385376073	0.5799082672701741	0.04764403935176431	0.4029183897916421	0.6799886268855252	0.28695050406239536	0.3901094677650489	0.5389319195057443	0.5255044701365558	0.3378047502631572	0.4586362646486068	0.6174428220950967	0.3413201664441082	0.4641499079796706	0.630936730627186	0.3650767635021436	0.5504969159314745	0.6389371467603623	0.049659828808098626	0.6550230698231986	0.03313196755989251	-0.021666179267358344	0.7015397863146469	0.2817979442902456	-0.06576012421585423	0.6233107694607027	0.5155504250455422	-0.07360894588688756	0.5536306878412912	0.6027542905846512	-0.10964678538381795	0.5605621028224194	0.628826040067322	-0.09507860509567442	0.6268794568295529	0.6341153084357668
